# xmcd
#
# Track frame offsets:
#	150
#	19589
#	32374
#	45493
#	61080
#	71444
#	91521
#	101466
#	119157
#	128210
#	140048
#	156353
#	165012
#	183676
#
# Disc length: 2552 seconds
#
# Revision: 0
# Processed by: cddbd v1.5.2PL0 Copyright (c) Steve Scherf et al.
# Submitted via: EZCDAudioConverter 8.3.2.1
#
DISCID=ae09f60e
DTITLE=IRENA JAROCKA - PONIEWAZ ZNOW SA SWIETA
DYEAR=2010
DGENRE=
TTITLE0=PONIEWAZ ZNOW SA SWIETA
TTITLE1=WITAJ GWIAZDKO ZLOTA
TTITLE2=CICHA NOC
TTITLE3=WSROD NOCNEJ CISZY
TTITLE4=W ZLOBIE LEZY
TTITLE5=GDY SLICZNA PANNA
TTITLE6=PRZYBIEZELI DO BETLEJEM
TTITLE7=LULAJZE JEZUNIU
TTITLE8=MEDRCY SWIATA
TTITLE9=DZISIAJ W BETLEJEM
TTITLE10=OJ MALUSKI, MALUSKI
TTITLE11=POJDZMY WSZYSCY DO STAJENKI
TTITLE12=PASTORALKA BRATERSKA
TTITLE13=SAMOTNIE KOLEDOWAC ZLE
EXTD=
EXTT0=
EXTT1=
EXTT2=
EXTT3=
EXTT4=
EXTT5=
EXTT6=
EXTT7=
EXTT8=
EXTT9=
EXTT10=
EXTT11=
EXTT12=
EXTT13=
PLAYORDER=
